<?xml version="1.0" standalone="no"?>
<!DOCTYPE svg PUBLIC "-//W3C//DTD SVG 20010904//EN"
 "http://www.w3.org/TR/2001/REC-SVG-20010904/DTD/svg10.dtd">
<svg version="1.0" xmlns="http://www.w3.org/2000/svg"
 width="316.000000pt" height="316.000000pt" viewBox="0 0 316.000000 316.000000"
 preserveAspectRatio="xMidYMid meet">
<metadata>
Created by potrace 1.14, written by Peter Selinger 2001-2017
</metadata>
<g transform="translate(0.000000,316.000000) scale(0.100000,-0.100000)"
fill="#000000" stroke="none">
<path d="M1471 2312 c-63 -169 -126 -335 -139 -369 l-24 -63 -350 0 -350 0
293 -222 c162 -121 295 -222 296 -223 2 -1 -60 -167 -137 -370 -77 -202 -139
-370 -137 -371 2 -2 151 106 330 241 180 135 331 245 337 245 6 0 157 -110
337 -246 180 -135 329 -241 330 -237 2 4 -60 172 -137 372 -77 201 -139 365
-137 366 1 1 134 102 295 223 l294 222 -352 2 -352 3 -137 367 c-75 202 -138
368 -141 368 -3 0 -57 -139 -119 -308z"/>
</g>
</svg>
